<svg width="1188" height="1151" xmlns="http://www.w3.org/2000/svg" xmlns:xlink="http://www.w3.org/1999/xlink" xml:space="preserve" overflow="hidden"><g transform="translate(-95 -66)"><path d="M559.218 75.1433 618.85 134.776 162.888 590.738 103.256 531.105Z" fill="#FFFFFF" fill-rule="evenodd"/><path d="M775.71 66.0688 835.343 125.701 544.109 416.936 484.476 357.303Z" fill="#FFFFFF" fill-rule="evenodd"/><path d="M447.954 393.824 507.587 453.457 155.2 805.844 95.5672 746.212Z" fill="#FFFFFF" fill-rule="evenodd"/><path d="M438.992 610.205 498.625 669.838 207.39 961.072 147.757 901.439Z" fill="#FFFFFF" fill-rule="evenodd"/><path d="M912.735 348.172 972.367 407.804 653.852 726.319 594.22 666.687Z" fill="#FFFFFF" fill-rule="evenodd"/><path d="M566.788 694.118 626.421 753.751 449.027 931.145 389.394 871.512Z" fill="#FFFFFF" fill-rule="evenodd"/><path d="M670.432 800.355 730.065 859.988 438.83 1151.22 379.198 1091.59Z" fill="#FFFFFF" fill-rule="evenodd"/><path d="M985.308 692.871 1044.94 752.503 581.29 1216.15 521.658 1156.52Z" fill="#FFFFFF" fill-rule="evenodd"/><path d="M1222.88 455.302 1282.51 514.934 1080.49 716.951 1020.86 657.318Z" fill="#FFFFFF" fill-rule="evenodd"/><path d="M1165.6 721.854 1225.23 781.487 1064.78 941.933 1005.15 882.3Z" fill="#FFFFFF" fill-rule="evenodd"/><path d="M982.497 904.954 1042.13 964.587 816.93 1189.79 757.297 1130.15Z" fill="#FFFFFF" fill-rule="evenodd"/></g></svg>