<svg width="269" height="264" xmlns="http://www.w3.org/2000/svg" xmlns:xlink="http://www.w3.org/1999/xlink" xml:space="preserve" overflow="hidden"><defs><clipPath id="clip0"><rect x="857" y="403" width="269" height="264"/></clipPath></defs><g clip-path="url(#clip0)" transform="translate(-857 -403)"><path d="M134.099 0C59.9458 0 0 60.3878 0 135.096 0 194.814 38.4094 245.364 91.6933 263.255 98.3552 264.6 100.795 260.348 100.795 256.771 100.795 253.64 100.576 242.904 100.576 231.719 63.2726 239.772 55.5046 215.614 55.5046 215.614 49.5097 199.958 40.6272 195.934 40.6272 195.934 28.4179 187.658 41.5166 187.658 41.5166 187.658 55.0599 188.553 62.1664 201.525 62.1664 201.525 74.1534 222.101 93.4693 216.287 101.24 212.708 102.349 203.984 105.904 197.946 109.678 194.591 79.9259 191.459 48.6231 179.829 48.6231 127.937 48.6231 113.175 53.9482 101.097 62.386 91.7043 61.0548 88.35 56.3912 74.4801 63.7201 55.9163 63.7201 55.9163 75.0428 52.337 100.573 69.7835 111.503 66.8264 122.776 65.322 134.099 65.3094 145.422 65.3093 156.964 66.8767 167.623 69.7835 193.156 52.337 204.478 55.9163 204.478 55.9163 211.807 74.4801 207.141 88.35 205.81 91.7043 214.47 101.097 219.575 113.175 219.575 127.937 219.575 179.829 188.273 191.234 158.298 194.591 163.184 198.84 167.4 206.891 167.4 219.641 167.4 237.758 167.181 252.297 167.181 256.769 167.181 260.348 169.624 264.6 176.283 263.258 229.567 245.361 267.976 194.814 267.976 135.096 268.196 60.3878 208.03 0 134.099 0Z" fill="#FFFFFF" fill-rule="evenodd" transform="matrix(1 0 0 1.00186 857 403)"/></g></svg>