<svg width="324" height="331" xmlns="http://www.w3.org/2000/svg" xmlns:xlink="http://www.w3.org/1999/xlink" xml:space="preserve" overflow="hidden"><defs><clipPath id="clip0"><rect x="812" y="4" width="324" height="331"/></clipPath></defs><g clip-path="url(#clip0)" transform="translate(-812 -4)"><path d="M192.655 140.084 313.166 0 284.609 0 179.969 121.633 96.3941 0 0 0 126.382 183.931 0 330.83 28.5588 330.83 139.061 202.382 227.322 330.83 323.716 330.83 192.648 140.084 192.655 140.084ZM153.54 185.551 140.735 167.236 38.8489 21.4987 82.7136 21.4987 164.937 139.113 177.742 157.428 284.622 310.309 240.758 310.309 153.54 185.558 153.54 185.551Z" fill="#FFFFFF" transform="matrix(1.00088 0 0 1 812 4)"/></g></svg>